<svg width="31" height="16" viewBox="0 0 31 16" fill="none" xmlns="http://www.w3.org/2000/svg">
<path d="M0.454004 9.25727C-0.242699 8.05596 0.166365 6.51732 1.36768 5.82062L10.0083 0.809476C11.2096 0.112773 12.7482 0.521839 13.4449 1.72315C14.1416 2.92446 13.7326 4.4631 12.5313 5.15981L3.89066 10.1709C2.68935 10.8677 1.15071 10.4586 0.454004 9.25727Z" fill="#747474"/>
<path d="M0.446674 6.83932C1.14103 5.63665 2.67888 5.22459 3.88154 5.91895L12.5319 10.9132C13.7346 11.6076 14.1466 13.1454 13.4523 14.3481C12.7579 15.5508 11.2201 15.9628 10.0174 15.2685L1.36704 10.2742C0.164376 9.57983 -0.247685 8.04199 0.446674 6.83932Z" fill="#878787"/>
<path d="M30.5296 6.83932C29.8352 5.63665 28.2974 5.22459 27.0947 5.91895L18.4444 10.9132C17.2417 11.6076 16.8296 13.1454 17.524 14.3481C18.2184 15.5508 19.7562 15.9628 20.9589 15.2685L29.6092 10.2742C30.8119 9.57983 31.224 8.04199 30.5296 6.83932Z" fill="#C6C6C6"/>
<path d="M30.5223 9.25727C31.219 8.05596 30.8099 6.51732 29.6086 5.82062L20.968 0.809476C19.7667 0.112773 18.228 0.521839 17.5313 1.72315C16.8346 2.92446 17.2437 4.4631 18.445 5.15981L27.0856 10.1709C28.2869 10.8677 29.8256 10.4586 30.5223 9.25727Z" fill="#939393"/>
</svg>
