<svg width="88" height="74" viewBox="0 0 88 74" fill="none" xmlns="http://www.w3.org/2000/svg">
<g id="&#237;&#152;&#184;&#235;&#158;&#145;&#236;&#157;&#180;&#235;&#161;&#156;&#235;&#147;&#156;&#236;&#164;&#145;">
<path id="Ellipse 42" d="M85.4193 45.5965C85.4193 63.3074 66.6397 74 43.8683 74C21.0968 74 2.95654 63.3074 2.95654 45.5965C2.95654 27.8855 16.6221 9.86298 43.8683 9.86298C71.1144 9.86298 85.4193 27.8855 85.4193 45.5965Z" fill="#EDEDED"/>
<path id="Ellipse 66" d="M5.04405 13.2817C2.26827 20.7435 7.18989 29.5222 13.9145 32.0295C20.6392 34.5367 25.9892 29.8484 28.765 22.3867C31.5408 14.9249 29.6843 7.34482 21.615 4.33623C13.5456 1.32763 7.81984 5.81995 5.04405 13.2817Z" fill="#EDEDED"/>
<path id="Ellipse 67" d="M59.2525 13.2817C56.4768 20.7435 61.3984 29.5222 68.123 32.0295C74.8477 34.5367 80.1977 29.8484 82.9735 22.3867C85.7493 14.9249 83.8928 7.34482 75.8235 4.33623C67.7541 1.32763 62.0283 5.81995 59.2525 13.2817Z" fill="#EDEDED"/>
</g>
</svg>
