<svg width="20" height="22" viewBox="0 0 20 22" fill="none" xmlns="http://www.w3.org/2000/svg">
<rect y="0.104492" width="20" height="21.791" rx="1.5" fill="#FBE8E9"/>
<path d="M12.775 14.24V5.5082C12.775 5.1694 12.9444 5 13.2832 5H14.4998C14.8386 5 15.008 5.1694 15.008 5.5082V16.2112C15.008 16.8067 14.7154 17.1044 14.1302 17.1044H12.698C12.4824 17.1044 12.3078 17.0582 12.1744 16.9658C12.0409 16.8734 11.928 16.7399 11.8356 16.5654L7.69296 8.7576V16.5962C7.69296 16.935 7.52356 17.1044 7.18476 17.1044H5.96816C5.62936 17.1044 5.45996 16.935 5.45996 16.5962V5.8932C5.45996 5.29773 5.75256 5 6.33776 5H7.44656C7.66216 5 7.83669 5.0462 7.97016 5.1386C8.11389 5.231 8.22683 5.36447 8.30896 5.539L12.775 14.24Z" fill="#D81921"/>
</svg>
