<svg width="33" height="33" viewBox="0 0 33 33" fill="none" xmlns="http://www.w3.org/2000/svg">
<rect x="0.916748" y="0.916748" width="32" height="31.9997" rx="2.41339" fill="#D81921"/>
<path d="M3.06201 3.7324C3.06201 3.36216 3.36215 3.06201 3.7324 3.06201C4.10264 3.06201 4.40279 3.36216 4.40279 3.7324V7.75473C4.40279 8.12497 4.10264 8.42511 3.7324 8.42511C3.36215 8.42511 3.06201 8.12497 3.06201 7.75473V3.7324Z" fill="white"/>
<path d="M3.7324 4.40279C3.36215 4.40279 3.06201 4.10265 3.06201 3.7324C3.06201 3.36216 3.36215 3.06201 3.7324 3.06201L7.75472 3.06201C8.12497 3.06201 8.42511 3.36215 8.42511 3.7324C8.42511 4.10264 8.12497 4.40279 7.75472 4.40279L3.7324 4.40279Z" fill="white"/>
<path d="M3.06201 30.1009C3.06201 30.4711 3.36215 30.7713 3.7324 30.7713C4.10264 30.7713 4.40279 30.4711 4.40279 30.1009V26.0786C4.40279 25.7083 4.10264 25.4082 3.7324 25.4082C3.36215 25.4082 3.06201 25.7083 3.06201 26.0786V30.1009Z" fill="white"/>
<path d="M3.7324 29.4305C3.36215 29.4305 3.06201 29.7306 3.06201 30.1009C3.06201 30.4711 3.36215 30.7713 3.7324 30.7713L7.75472 30.7713C8.12497 30.7713 8.42511 30.4711 8.42511 30.1009C8.42511 29.7306 8.12497 29.4305 7.75472 29.4305H3.7324Z" fill="white"/>
<path d="M30.1011 3.06201C30.4714 3.06201 30.7715 3.36216 30.7715 3.7324C30.7715 4.10264 30.4714 4.40279 30.1011 4.40279L26.0788 4.40279C25.7086 4.40279 25.4084 4.10264 25.4084 3.7324C25.4084 3.36215 25.7086 3.06201 26.0788 3.06201L30.1011 3.06201Z" fill="white"/>
<path d="M29.4308 3.7324C29.4308 3.36215 29.7309 3.06201 30.1011 3.06201C30.4714 3.06201 30.7715 3.36216 30.7715 3.7324V7.75472C30.7715 8.12497 30.4714 8.42511 30.1011 8.42511C29.7309 8.42511 29.4308 8.12497 29.4308 7.75472V3.7324Z" fill="white"/>
<path d="M30.1011 30.7713C30.4714 30.7713 30.7715 30.4711 30.7715 30.1009C30.7715 29.7306 30.4714 29.4305 30.1011 29.4305H26.0788C25.7086 29.4305 25.4084 29.7306 25.4084 30.1009C25.4084 30.4711 25.7086 30.7713 26.0788 30.7713H30.1011Z" fill="white"/>
<path d="M29.4308 30.1009C29.4308 30.4711 29.7309 30.7713 30.1011 30.7713C30.4714 30.7713 30.7715 30.4711 30.7715 30.1009V26.0786C30.7715 25.7083 30.4714 25.4082 30.1011 25.4082C29.7309 25.4082 29.4308 25.7083 29.4308 26.0786V30.1009Z" fill="white"/>
<path d="M13.558 12.0606C13.558 14.0687 11.9287 15.6966 9.91893 15.6966C7.90913 15.6966 6.27987 14.0687 6.27987 12.0606C6.27987 10.0525 7.90913 8.42459 9.91893 8.42459C11.9287 8.42459 13.558 10.0525 13.558 12.0606Z" fill="white"/>
<path d="M27.7325 12.0606C27.7325 14.0687 26.1032 15.6966 24.0934 15.6966C22.0836 15.6966 20.4544 14.0687 20.4544 12.0606C20.4544 10.0525 22.0836 8.42459 24.0934 8.42459C26.1032 8.42459 27.7325 10.0525 27.7325 12.0606Z" fill="white"/>
<path d="M17.0057 26.1333C22.8062 26.1333 27.5085 23.2246 27.5085 18.8365C27.5085 14.6763 23.2819 10.6798 17.9 10.276V11.7877H19.4319C19.9255 11.7877 20.3257 12.1879 20.3257 12.6816C20.3257 13.1753 19.9255 13.5754 19.4319 13.5754H17.9V14.2119H18.5061C18.9998 14.2119 19.4 14.6121 19.4 15.1057C19.4 15.5994 18.9998 15.9996 18.5061 15.9996H17.9V16.6926C17.9 17.1863 17.4998 17.5865 17.0062 17.5865C16.5125 17.5865 16.1123 17.1863 16.1123 16.6926V15.9996H15.4417C14.9481 15.9996 14.5479 15.5994 14.5479 15.1057C14.5479 14.6121 14.9481 14.2119 15.4417 14.2119H16.1123V13.5754H14.548C14.0543 13.5754 13.6541 13.1753 13.6541 12.6816C13.6541 12.1879 14.0543 11.7877 14.548 11.7877H16.1123V10.2759C16.4069 10.2538 16.7049 10.2425 17.0059 10.2425C17.0059 10.2425 17.006 10.2425 17.0059 10.2425C11.2054 10.2425 6.50298 14.4484 6.50298 18.8365C6.50298 23.2246 11.2052 26.1333 17.0057 26.1333Z" fill="white"/>
</svg>
