<svg width="110" height="92" viewBox="0 0 110 92" fill="none" xmlns="http://www.w3.org/2000/svg">
<path d="M106.197 56.6876C106.197 78.7066 82.8495 92.0001 54.539 92.0001C26.2286 92.0001 3.67578 78.7066 3.67578 56.6876C3.67578 34.6686 20.6654 12.2622 54.539 12.2622C88.4126 12.2622 106.197 34.6686 106.197 56.6876Z" fill="#EDEDED"/>
<path d="M6.27127 16.5123C2.8203 25.7891 8.93908 36.7032 17.2995 39.8203C25.6598 42.9374 32.3112 37.1088 35.7622 27.832C39.2132 18.5552 36.9051 9.13131 26.8729 5.3909C16.8408 1.65048 9.72225 7.23552 6.27127 16.5123Z" fill="#EDEDED"/>
<path d="M73.6658 16.5123C70.2148 25.7891 76.3336 36.7032 84.694 39.8203C93.0544 42.9374 99.7058 37.1088 103.157 27.832C106.608 18.5552 104.3 9.13131 94.2675 5.3909C84.2353 1.65048 77.1168 7.23552 73.6658 16.5123Z" fill="#EDEDED"/>
<path d="M50.297 58.8864V50.0147C51.3314 49.9351 52.3658 49.7494 53.4001 49.4577C54.4345 49.1659 55.3495 48.7548 56.1452 48.2244C56.9674 47.6939 57.6305 47.0309 58.1344 46.2352C58.6649 45.413 58.9301 44.4449 58.9301 43.331C58.9301 42.5353 58.7709 41.8325 58.4527 41.2224C58.1344 40.5859 57.71 40.0687 57.1796 39.6709C56.6757 39.2465 56.0789 38.9282 55.3893 38.7161C54.7263 38.5039 54.0367 38.3978 53.3206 38.3978C52.5249 38.3978 51.7823 38.5437 51.0927 38.8354C50.4296 39.1272 49.8196 39.525 49.2626 40.0289C48.7322 40.5063 48.268 41.0633 47.8702 41.6999C47.4989 42.3364 47.2071 43.0127 46.9949 43.7288L42.022 41.6203C42.4198 40.1881 43.0033 38.968 43.7725 37.9602C44.5416 36.9258 45.4434 36.0903 46.4778 35.4538C47.5121 34.7907 48.6526 34.3001 49.8992 33.9818C51.1457 33.6635 52.4453 33.5044 53.798 33.5044C55.4954 33.5044 57.047 33.7431 58.4527 34.2205C59.8584 34.6714 61.0519 35.3079 62.0332 36.1301C63.0411 36.9523 63.8235 37.9469 64.3805 39.1139C64.9374 40.2544 65.2159 41.5009 65.2159 42.8536C65.2159 44.2062 64.9772 45.4395 64.4998 46.5535C64.0224 47.6674 63.3859 48.6488 62.5902 49.4975C61.7945 50.3462 60.8662 51.0756 59.8053 51.6856C58.7709 52.2691 57.6835 52.72 56.5431 53.0382V58.8864H50.297ZM50.297 62.2681H56.5431V68.0765H50.297V62.2681Z" fill="#505050"/>
</svg>
